<?xml version="1.0" encoding="utf-8"?>
<!-- Generator: Adobe Illustrator 19.0.0, SVG Export Plug-In . SVG Version: 6.00 Build 0)  -->
<svg version="1.1" id="Layer_1" xmlns="http://www.w3.org/2000/svg" xmlns:xlink="http://www.w3.org/1999/xlink" x="0px" y="0px"
	 viewBox="0 0 245.9 317.1" enable-background="new 0 0 245.9 317.1" xml:space="preserve">
<g id="dragon">
	<path id="XMLID_132_" d="M106.2,114.9c-0.1,0.2-0.1,0.9-0.4,1.4c-0.3,0.5-0.9,1-1.3,1c-0.5,0-1.2-0.5-1.5-1
		c-0.7-1.1,0.2-2.9,1.4-3.2C105.5,112.8,106.1,113.3,106.2,114.9z"/>
	<path id="XMLID_110_" d="M81.8,183.3c-9.3-1.7-33.2,14.2-32.6,26.2c4.6-5.8,9.4-11.5,15.5-15.8c4.6-3.3,30.9,33.1,41.7,35
		c0,0.2,0,0.4,0,0.6c-23.2,4.6-23.1-27-40.1-35c-8.2,5.8-26.5,21.2-15,32.3c-1,0.4-1,0.4-2.9-0.8c0.1,1.8,0.3,3.5,0.4,5.6
		c-1.9-1.4-2.9-2.8-3.6-4.9c-1.3,1.9-2,4.1-2.2,6.4c-4.3-10.2,6-38,15.1-47.9c-6.9-3.4-16.7-4.9-24.3-4.1c-1.1,0.7-1.9,1.6-2.3,2.8
		c-1.5-6-2.9-27.6-14.5-25.8C15.7,133.5-0.8,114.9,0,90c3.1-1.5,20.1,5.4,24,5.6c4.6,11.1,13.4,18.4,24.3,23.6
		c0,19.3,8.6,35.7,20.1,50.8c0.4,0.1,0.6,0.2,0.8,0.1c3.8-0.5,4-0.5,4.6-4.4c3.6-21.3,10.1-33.7,23.1-51c-1-2.2-2.7-3.1-5.7-2.6
		c0.3,0-6,2.6-6.5,1.7c-2.2-3.8,27.4-4.9,32.9-3.4c0.4,3.5-10,5.7-8.8,8.3c2.3,5,9.2-4.5,11.7-0.6c-11.2,13.2-24.9,9.8-28.6,33.2
		c-1.6,10,15.8,45.8,22.1,34.5c-34.2-1.7-31-51.7-4.9-64c-0.7-0.6-1.5-1.4-2.6-2.4c-17.6,17.8-24.2,35.3-23.5,59.9
		c0,1,0.3,1.6,1.2,2.1c40.9,22.5,70.3-29.8,70.3-65c11.3,0.1,17.7-21.9,25.6-26c15.3-8,30.2,0,45.2,0.4c1.6,0,1.6,0,1.7,1.9
		c-3.3,0.1-5,2.5-6.5,4.9c-5.3,7.9-6.1,15.5-2.1,22.8c0.7,0.7,0.2,1.8-0.8,1.9c-9.7,0.7-29.2,25.7-26.2,33.2c-2.4,2-2.8,0-5.6,1.4
		c-11.6,5.8-8.5,14.4-19.2,18.2c-8,2.8-17,7.9-19.5,16.4c60.8-36.1,57.8,65.8,31.3,93.4c-16.9,17.6-88.7,60.8-106.6,3.7
		c8.7,27.8,45,20.4,73.9,6.7c25-11.8,75.4-75.9,27.3-92.6c-7.9-0.7-14.6,1.8-19.9,7.4c2.3,10.2-3.5,16.6-4.5,25.7
		c3.4,1.2,6.2,3.4,8.2,6.5c0.6,1.9,0.2,19.2,1.4,16.7c-0.3-2-1-3.9-2.1-5.7c-1.2,0.8-0.4,2-1,2.9c-0.9,0.4-1.8,0.9-3,1.4
		c-0.7-0.4-0.9-1.8-2.1-1.2c-0.1-0.5-0.5-1.1-0.3-1.4c2.2-2.3,4-4.8,5.5-7.5c2-12.4-18.6-12.1-14.6-27.9c1,3,1.4,6.1,1.2,9.3
		c0.6,2.8,2.9,4,5.3,4.9c4.4-5.3,6.9-17.5,4.6-22.9c-11.9,8.8-25.1,17.3-40.3,15.3c-0.3,1.2-0.6,2.2-1,3.4
		c10.1,4.6,17.6,0.4,26.8-2.6c-10.7,14.7-32.2,1.2-37.5,26.8c-2.2-1.3-4.3,1.2-6.4-0.9c1-1.2,2-2.4,3.3-3.9
		c-2.4,0.2-3.8,1.1-4.2,3.1c-0.7-0.9-1.2-1.6-1.9-2.7c0.6-0.5,1.5-1.1,2.4-1.8c-0.1-0.2-0.2-0.5-0.5-1.1c8.8-2.2,9.9-18.4,17-17.7
		c0.2-1,0.3-1.8,0.5-2.7C91.8,220,85.5,200.2,81.8,183.3C80.9,183.2,82.6,186.8,81.8,183.3z M88.2,185.3c-0.6-1.3-1.8-1.5-3.1-1.5
		c18.6,8.8,27.3,20.7,27.3,41.1c1.6,0.2,3.1,0.3,4.7,0.5c6.2-20.4-10.3-21.4-10.2-36.6C100.6,188.4,94.6,185.6,88.2,185.3
		C87.7,184,88.7,185.4,88.2,185.3z M71.9,288.6c13.7,42.1,80,19.4,100.6,0.5c38.5-35.4,32.5-124.7-31.9-91.7
		c-1.3,0.7-1.8,1.2-2.1,0.7c0.1-1.1,1-1.1,6.9-7.1c3.8-10.4,16.6-16.6,27.1-17.9c-1.6-3.5-4.9-46.6-9.1-47.7
		c-4.3,31.7-21.5,59.3-55.7,63.7c4.7,19.2,15.7,11,10.8,36.3c14.7-2.4,41.7-29.2,55.5-23.9c61.9,24-28.6,141.9-98.4,88.9
		C76.8,291.3,73.1,289.3,71.9,288.6z M73.1,177.1c0.1-0.1,0.1-0.2,0.2-0.2c-14.8-16-16-32.3-25.8-50.7
		c-5.6-10.5-18.3-16.3-23.6-28.6c-0.1-0.1-0.2-0.2,0.1,0c-6.9-1.5-13.4-2.8-19.9-4.2c2.5,4.5,6,7.8,10.7,10c0.4-0.3,0.8-0.6,1.5-1.1
		c6.4,12.3,16.7,13.8,26.6,21.3C35.7,156.5,50.8,163.2,73.1,177.1C73.2,177,72.2,176.5,73.1,177.1z M216.3,120.5
		c-3.1-9-1-17.1,3.9-24.8c-0.7-1.8-2.1-2-3.7-1.6c-12.8,3.3-46.4,14.1-53.3,25.4C176.1,121.1,205.2,128.1,216.3,120.5
		C213.2,111.6,214.9,121.5,216.3,120.5z M121.2,185.2c13.5-4.5,25.7-16.8,32.5-28.9c4.2-7.5,4.4-35.2,7.9-38
		c12.8-10.4,21.1-21.3,37.4-25.8c5-1.4,22,3.4,23.8-1.2C154.1,73.3,157.4,150.6,121.2,185.2C121.6,185.1,127.2,179.5,121.2,185.2z
		 M74.6,177.5c-17.8,17.3-34.9-36.1-34.9-45.9c-7.5,12.4-3.2,33.2-6.4,47.4c10.3,0,21.8,1.7,30.6,7.4c-0.1,0.2-0.2,0.4-0.3,0.6
		c-10.4-3.4-17,16.1-16.9,23.7c15.5-8.7,12.4-26.1,33.5-29.6C78.2,179.8,76.5,178.7,74.6,177.5C73.4,178.7,76.5,178.7,74.6,177.5z
		 M209.7,125.2c-12.3-3.1-32.4-5.7-45.2-3.8c8.9,10,17.7,19.5,25,30.2C194.7,141.7,201.4,132.9,209.7,125.2
		C209.1,125.1,205.5,129.1,209.7,125.2z M70.2,171.5c3.4,3.4,6.6,6.7,11.3,8.4c1.6-28.2,8.2-50.3,31.9-67.4
		C104.5,92.9,66.4,171.3,70.2,171.5C73.6,174.9,72.1,171.6,70.2,171.5z M84,184.3c-0.2,0.4-0.3,0.4-0.3,0.5
		c2.7,15.8,10.4,34,27.1,39.8C113.3,204.4,100,193.3,84,184.3C83.8,184.7,87,186,84,184.3z M164.4,123.7c4.2,15.6,4.2,32.4,8.7,47.8
		c3.4-7.5,8.6-13.9,16.1-17.4C182.3,142.7,173.4,133.2,164.4,123.7C164.5,124,173.4,133.2,164.4,123.7z M8.9,118.7
		c8.2,9,12,19.7,11.4,31.9c7.4-4.9,15.1-18.5,20.1-24C33,124.5,16.1,118.4,8.9,118.7C12.2,123.5,14.1,118.5,8.9,118.7z M38.5,131.3
		c-0.1,0-0.1,0-0.2-0.1c-6.5,8.1-15.5,15.2-19.4,24.9c9.9,3.8,10.9,14,11.9,23.5c0.2,0,0.3,0.1,0.5,0.1
		C39.8,166,32.5,146.2,38.5,131.3C38.4,131.3,38.1,132.2,38.5,131.3z M40.6,125.2c0-0.1,0-0.2,0-0.2c-14.2-8.6-29-18.7-39-32.3
		c-0.2,0.1-0.4,0.1-0.6,0.2C2.5,121.2,16.3,118.8,40.6,125.2C40.6,125.2,36.7,124.2,40.6,125.2z M214,93.1
		c-18.6-1.7-33.7,7.4-45.4,21.3c0.1,0.1,0.2,0.3,0.3,0.4C183.8,107.7,198.7,100.5,214,93.1C209.6,92.7,198.7,100.5,214,93.1z
		 M101.4,242.4c3.9-3.1,6.1-7.3,7.2-12C105.3,233.9,103.4,238.1,101.4,242.4z M106.7,238.5c0.1,0.1,0.2,0.2,0.3,0.3
		c2.1-2.2,4.2-4.4,6.5-6.8c-1.2-0.3-2.1-0.5-3-0.8C109.1,233.7,107.9,236.1,106.7,238.5C106.8,238.6,107.9,236.1,106.7,238.5z
		 M99.7,248c-1.6,0.9-2,2.4-2.4,4C99.5,251.4,99.8,251,99.7,248z M96.2,111.1c1,0.8,1.5,1.3,2.2,1.9c0.4-0.6,0.8-1.2,1.5-2.1
		C98.6,111,97.6,111.1,96.2,111.1C97.2,112,97.6,111.1,96.2,111.1z M45.1,223.6c-0.2-0.1-0.4-0.2-0.6-0.3c-0.5,1-1,2-1.5,3
		c0.2,0.1,0.3,0.2,0.5,0.2C44.1,225.6,44.6,224.6,45.1,223.6C44.9,223.5,44.6,224.6,45.1,223.6z M95.9,247.6
		c0.1,0.2,0.2,0.3,0.2,0.5c0.4-0.2,0.9-0.5,1.3-0.7c-0.1-0.2-0.2-0.3-0.2-0.5C96.8,247.1,96.3,247.3,95.9,247.6
		C96,247.7,96.3,247.3,95.9,247.6z"/>
</g>
<g id="Layer_3">
	<path id="XMLID_15_" d="M123.2,109.3l8.5-20.6c0,0-20.6-25.6-20.6-40.8c0-22.7,13.5-36.9,27.1-42.9s75.9-7.3,88.6,1.2
		c15.6,10.5,19.1,30.4,19.1,39c0,13.8-13.8,32.2-25.8,35.1c-11.8,2.9-45.9,2.6-58.2,5.2c-11.1,2.4-16.7,4.5-16.8,3.2L123.2,109.3z"
		/>
	<text id="XMLID_14_" transform="matrix(1 0 0 1 131.1514 33.2877)"><tspan x="0" y="0" fill="#FFFFFF" font-family="'FranklinGothicFS-Book'" font-size="12px">Didn’t find the info</tspan><tspan x="0" y="14.4" fill="#FFFFFF" font-family="'FranklinGothicFS-Book'" font-size="12px">you were looking for?</tspan><tspan x="0" y="28.8" fill="#FFFFFF" font-family="'FranklinGothicFS-Book'" font-size="12px">Contact us!</tspan></text>
</g>
</svg>
